<mxfile host="65bd71144e">
    <diagram id="zX355v7rRJRXTngNo5Ba" name="Page-1">
        <mxGraphModel dx="920" dy="822" grid="1" gridSize="10" guides="1" tooltips="1" connect="1" arrows="1" fold="1" page="1" pageScale="1" pageWidth="827" pageHeight="1169" math="0" shadow="0">
            <root>
                <mxCell id="0"/>
                <mxCell id="1" parent="0"/>
                <mxCell id="18" value="" style="rounded=0;whiteSpace=wrap;html=1;" vertex="1" parent="1">
                    <mxGeometry x="10" y="60" width="970" height="690" as="geometry"/>
                </mxCell>
                <mxCell id="16" value="" style="rounded=0;whiteSpace=wrap;html=1;" parent="1" vertex="1">
                    <mxGeometry x="20" y="70" width="930" height="290" as="geometry"/>
                </mxCell>
                <mxCell id="17" value="" style="rounded=0;whiteSpace=wrap;html=1;" parent="1" vertex="1">
                    <mxGeometry x="20" y="370" width="930" height="300" as="geometry"/>
                </mxCell>
                <mxCell id="2" value="Header" style="rounded=1;whiteSpace=wrap;html=1;" parent="1" vertex="1">
                    <mxGeometry x="10" width="970" height="50" as="geometry"/>
                </mxCell>
                <mxCell id="5" value="Footer" style="rounded=0;whiteSpace=wrap;html=1;" parent="1" vertex="1">
                    <mxGeometry x="10" y="760" width="970" height="60" as="geometry"/>
                </mxCell>
                <mxCell id="7" value="About me" style="rounded=1;whiteSpace=wrap;html=1;" parent="1" vertex="1">
                    <mxGeometry x="35" y="230" width="910" height="120" as="geometry"/>
                </mxCell>
                <mxCell id="8" value="Projects" style="whiteSpace=wrap;html=1;aspect=fixed;" parent="1" vertex="1">
                    <mxGeometry x="720" y="530" width="130" height="130" as="geometry"/>
                </mxCell>
                <mxCell id="9" value="Projects" style="whiteSpace=wrap;html=1;aspect=fixed;" parent="1" vertex="1">
                    <mxGeometry x="530" y="530" width="130" height="130" as="geometry"/>
                </mxCell>
                <mxCell id="10" value="Projects" style="whiteSpace=wrap;html=1;aspect=fixed;" parent="1" vertex="1">
                    <mxGeometry x="330" y="530" width="130" height="130" as="geometry"/>
                </mxCell>
                <mxCell id="11" value="Projects" style="whiteSpace=wrap;html=1;aspect=fixed;" parent="1" vertex="1">
                    <mxGeometry x="140" y="530" width="130" height="130" as="geometry"/>
                </mxCell>
                <mxCell id="14" value="Projects" style="rounded=1;whiteSpace=wrap;html=1;" parent="1" vertex="1">
                    <mxGeometry x="135" y="380" width="720" height="140" as="geometry"/>
                </mxCell>
                <mxCell id="15" value="Contact me" style="rounded=0;whiteSpace=wrap;html=1;" parent="1" vertex="1">
                    <mxGeometry x="20" y="680" width="930" height="60" as="geometry"/>
                </mxCell>
                <mxCell id="6" value="img" style="whiteSpace=wrap;html=1;aspect=fixed;" parent="1" vertex="1">
                    <mxGeometry x="420" y="80" width="140" height="140" as="geometry"/>
                </mxCell>
            </root>
        </mxGraphModel>
    </diagram>
</mxfile>